<?xml version="1.0" standalone="no"?>
<!DOCTYPE svg PUBLIC "-//W3C//DTD SVG 20010904//EN"
 "http://www.w3.org/TR/2001/REC-SVG-20010904/DTD/svg10.dtd">
<svg version="1.0" xmlns="http://www.w3.org/2000/svg"
 width="1024.000000pt" height="1280.000000pt" viewBox="0 0 1024.000000 1280.000000"
 preserveAspectRatio="xMidYMid meet">
<metadata>
Created by potrace 1.15, written by Peter Selinger 2001-2017
</metadata>
<g transform="translate(0.000000,1280.000000) scale(0.100000,-0.100000)"
fill="#000000" stroke="none">
<path d="M4481 12790 c-1356 -81 -2499 -524 -3336 -1296 -302 -278 -575 -629
-788 -1011 -186 -336 -279 -583 -321 -858 -94 -620 15 -1582 270 -2375 l56
-176 77 -60 c42 -33 104 -95 138 -137 116 -144 174 -261 313 -632 80 -211 83
-224 88 -320 9 -195 -35 -391 -193 -870 -160 -484 -170 -534 -154 -765 28
-409 124 -569 359 -600 41 -5 136 -9 210 -9 219 0 349 33 406 103 46 55 117
70 339 70 244 1 439 -30 620 -99 204 -76 329 -206 350 -361 6 -44 3 -59 -19
-103 -36 -70 -58 -173 -50 -227 14 -96 87 -153 205 -162 l69 -5 20 45 c10 24
26 91 35 149 35 227 60 290 130 323 33 16 41 16 74 4 31 -12 38 -20 49 -63 7
-28 16 -114 19 -192 l6 -142 -38 -78 c-28 -58 -39 -95 -42 -145 -8 -97 2 -108
124 -142 77 -21 118 -40 191 -87 138 -90 180 -105 278 -100 44 2 54 31 65 186
20 271 33 327 83 361 33 21 82 21 106 -1 36 -32 43 -79 36 -221 -7 -124 -6
-136 15 -176 73 -146 222 -186 381 -101 107 57 125 99 147 338 23 244 34 330
43 349 10 18 10 18 28 0 20 -21 53 -115 72 -204 7 -38 16 -56 24 -53 25 9 104
-224 119 -353 10 -81 24 -100 92 -120 111 -32 291 3 372 73 69 59 85 119 55
207 -9 27 -13 51 -8 56 5 5 33 0 64 -12 30 -11 63 -21 73 -21 12 -1 28 -20 44
-51 14 -28 51 -75 82 -106 68 -68 154 -105 243 -105 49 0 61 4 87 29 56 54 64
96 67 351 2 201 5 238 23 296 34 107 107 189 170 189 37 0 85 -59 105 -129 9
-34 21 -123 26 -199 15 -231 55 -310 175 -347 162 -50 406 131 431 319 5 32
-3 76 -30 173 -42 153 -44 200 -12 268 112 232 431 419 840 491 59 10 96 11
141 4 81 -13 103 -21 285 -102 85 -39 190 -79 234 -90 101 -26 143 -18 315 57
213 94 305 158 342 240 27 58 24 86 -26 230 -68 197 -150 473 -189 635 -64
269 -70 323 -71 580 0 206 3 247 22 335 33 150 85 308 136 415 25 52 75 185
111 294 37 110 82 228 101 262 53 94 124 165 249 248 260 173 414 410 511 789
119 464 125 1094 19 1787 -35 229 -76 400 -118 498 -339 788 -1036 1457 -2026
1946 -770 380 -1594 603 -2555 691 -201 19 -777 27 -984 15z m-1561 -5011
c157 -14 269 -34 413 -74 165 -45 282 -97 462 -205 342 -206 520 -362 602
-528 33 -66 37 -81 36 -150 -1 -145 -67 -269 -263 -491 -216 -247 -510 -422
-853 -510 -146 -38 -283 -53 -472 -52 -387 1 -738 84 -942 222 -290 197 -453
560 -422 945 33 420 265 732 617 826 122 32 552 41 822 17z m4930 -1 c100 -12
215 -51 297 -99 85 -50 219 -188 275 -285 57 -97 112 -257 129 -373 18 -126 7
-333 -24 -453 -92 -353 -333 -604 -674 -703 -435 -127 -908 -127 -1283 1 -120
41 -327 148 -429 221 -164 118 -357 322 -451 477 -174 287 -89 495 325 791
337 240 612 360 942 410 215 33 684 40 893 13z m-2648 -1679 c21 -5 49 -20 63
-32 48 -43 593 -1001 621 -1092 25 -82 28 -164 7 -205 -51 -99 -205 -116 -360
-40 -66 32 -90 63 -158 200 -15 30 -39 70 -52 87 -58 75 -211 112 -327 79 -75
-22 -128 -75 -185 -185 -77 -148 -153 -208 -292 -230 -71 -12 -151 0 -189 27
-36 26 -60 80 -60 133 0 102 44 195 315 669 302 527 330 569 398 589 44 13
174 13 219 0z"/>
<path d="M2199 3600 c-33 -19 -61 -109 -68 -220 -15 -242 25 -562 105 -840 54
-188 55 -202 64 -650 5 -234 13 -465 19 -515 42 -332 144 -479 379 -540 35 -9
121 -22 190 -29 l127 -12 395 -151 c217 -83 420 -156 450 -163 184 -43 386
-135 605 -276 172 -111 246 -147 354 -175 157 -40 479 -34 659 12 42 11 118
42 171 71 176 96 224 117 296 128 174 28 204 34 275 57 151 49 297 160 387
297 56 85 323 397 385 450 91 78 191 121 379 161 96 20 117 29 225 95 131 79
195 134 227 195 29 54 28 163 -2 265 -48 167 -54 247 -61 895 -7 637 -9 655
-52 740 -59 113 -159 103 -242 -24 -50 -76 -74 -159 -155 -544 -39 -186 -79
-353 -87 -370 -72 -141 -183 -183 -310 -116 -32 17 -75 39 -96 50 -84 43 -191
72 -275 73 -75 1 -85 -1 -125 -29 -29 -20 -52 -48 -71 -86 -29 -58 -56 -181
-57 -258 0 -40 -2 -43 -22 -38 -13 3 -57 9 -98 12 -103 9 -123 19 -172 84 -23
31 -51 64 -63 73 -29 25 -154 52 -198 44 -47 -9 -89 -52 -111 -113 -35 -98
-30 -93 -88 -93 -29 0 -83 -3 -119 -6 l-66 -7 -13 54 c-32 132 -47 147 -132
128 -69 -15 -98 -37 -98 -72 0 -46 -22 -61 -98 -65 l-69 -4 -80 81 c-182 185
-359 186 -468 3 -32 -54 -24 -51 -162 -68 l-51 -6 -20 38 c-26 51 -87 109
-134 129 -110 45 -199 -20 -230 -169 l-13 -59 -80 7 c-44 3 -94 6 -112 6 -28
0 -33 5 -46 43 -9 23 -18 80 -21 126 -3 50 -12 93 -21 107 -24 36 -88 64 -173
74 -42 5 -113 14 -157 19 l-80 10 -36 -39 c-46 -51 -78 -58 -123 -31 -34 21
-253 264 -289 321 -24 38 -52 157 -82 350 -37 244 -65 321 -162 458 -72 102
-149 144 -204 112z"/>
</g>
</svg>
